<?xml version="1.0" encoding="UTF-8"?>
<svg width="11px" height="13px" viewBox="0 0 11 13" version="1.1" xmlns="http://www.w3.org/2000/svg" xmlns:xlink="http://www.w3.org/1999/xlink">
    <!-- Generator: sketchtool 53.1 (72631) - https://sketchapp.com -->
    <title>679D3018-F0FF-4885-AB63-60ABE8690FB4</title>
    <desc>Created with sketchtool.</desc>
    <g id="Home" stroke="none" stroke-width="1" fill="none" fill-rule="evenodd">
        <g id="8" transform="translate(-267.000000, -1325.000000)" fill="#777777" fill-rule="nonzero">
            <g id="Action-card-FB-Post" transform="translate(0.000000, 927.000000)">
                <g id="Group-16">
                    <g id="Group-15">
                        <g id="Group-13-Copy" transform="translate(258.000000, 395.000000)">
                            <path d="M15.0473303,5.278064 L15.0473303,8.80906318 C15.0473303,8.99768688 14.884843,9.15077279 14.6846355,9.15077279 L14.6846355,9.15077279 C14.484428,9.15077279 14.3219408,8.99768688 14.3219408,8.80906318 L14.3219408,3.6834192 C14.3219408,3.30594399 13.9972081,3 13.5965513,3 L13.5965513,3 C13.1958945,3 12.8711618,3.30594399 12.8711618,3.6834192 L12.8711618,8.80906318 C12.8711618,8.99768688 12.7086746,9.15077279 12.5084671,9.15077279 L12.5084671,9.15077279 C12.3082596,9.15077279 12.1457724,8.99768688 12.1457724,8.80906318 L12.1457724,4.708548 C12.1457724,4.39394736 11.8752021,4.139032 11.5412811,4.139032 L11.5412811,4.139032 C11.2073602,4.139032 10.9367899,4.39394736 10.9367899,4.708548 L10.9367899,9.26467598 C10.9367899,9.45329968 10.7743027,9.6063856 10.5740952,9.6063856 L10.5740952,9.6063856 C10.3738877,9.6063856 10.2114004,9.45329968 10.2114004,9.26467598 L10.2114004,6.41709599 C10.2114004,6.10249536 9.94083015,5.84757999 9.60690919,5.84757999 L9.60449123,5.84757999 C9.27057027,5.84757999 9,6.10249536 9,6.41709599 L9,12.597028 C9.20214187,15.3489293 10.8038018,16 13.064599,16 C14.6766562,16 16.0667443,15.223408 16.7343444,14.0975887 C17.0150701,13.6706795 18.7156248,11.1759717 18.8616699,10.9153611 C19.0318947,10.6114674 19.2811868,10.2456103 19.5955223,10.0036799 C19.7630872,9.87474153 19.8745554,9.70343109 19.9778025,9.52414747 C20.0041584,9.47813058 20.0808078,8.92137174 19.6414636,8.92296638 C19.2603923,8.92433322 18.8254005,9.07559667 18.509856,9.27652192 C18.1561077,9.50182244 17.6969362,9.89068796 17.3047423,10.5365191 C17.1773156,10.7465566 16.9490597,10.8928083 16.6925136,10.8982757 C16.4504753,10.9035152 16.5131006,10.7916623 16.4981092,10.3205587 L16.4981092,10.3205587 L16.4981092,9.6398731 L16.4981092,5.278064 C16.4981092,4.90058879 16.1733765,4.5946448 15.7727197,4.5946448 L15.7727197,4.5946448 C15.372063,4.5946448 15.0473303,4.90058879 15.0473303,5.278064 Z" id="Supporter-icon"></path>
                        </g>
                    </g>
                </g>
            </g>
        </g>
    </g>
</svg>