<?xml version="1.0" encoding="UTF-8"?>
<svg width="44px" height="27px" viewBox="0 0 44 27" version="1.1" xmlns="http://www.w3.org/2000/svg" xmlns:xlink="http://www.w3.org/1999/xlink">
    <!-- Generator: sketchtool 53.1 (72631) - https://sketchapp.com -->
    <title>6455409F-0091-4D99-9C08-87442F505502</title>
    <desc>Created with sketchtool.</desc>
    <g id="Home" stroke="none" stroke-width="1" fill="none" fill-rule="evenodd">
        <g id="1" transform="translate(-20.000000, -40.000000)">
            <g id="Group-2" transform="translate(0.000000, 24.000000)">
                <g id="Hamburger-menu" transform="translate(20.000000, 16.000000)">
                    <g id="menu-(1)" transform="translate(0.000000, 6.000000)" fill="#2A2A2A">
                        <path d="M11.5152656,7 L0.484734375,7 C0.21703125,7 0,7.26861039 0,7.6 C0,7.93138961 0.21703125,8.2 0.484734375,8.2 L11.5152656,8.2 C11.7829922,8.2 12,7.93138961 12,7.6 C12,7.2686394 11.7829922,7 11.5152656,7 Z" id="Path"></path>
                        <path d="M14.394082,5.19029264e-15 L0.605917969,5.19029264e-15 C0.271289063,5.19029264e-15 0,0.268639397 0,0.6 C0,0.931360603 0.271289063,1.2 0.605917969,1.2 L14.394082,1.2 C14.7287402,1.2 15,0.931360603 15,0.6 C15,0.268639397 14.7287402,5.19029264e-15 14.394082,5.19029264e-15 Z" id="Path"></path>
                        <path d="M14.394082,14.0037893 L0.605917969,14.0037893 C0.271289063,14.0037893 0,14.2723997 0,14.6037893 C0,14.9351789 0.271289063,15.2037893 0.605917969,15.2037893 L14.394082,15.2037893 C14.7287402,15.2037893 15,14.9351789 15,14.6037893 C15,14.2723997 14.7287402,14.0037893 14.394082,14.0037893 Z" id="Path"></path>
                    </g>
                    <g id="Group-4" transform="translate(17.000000, 0.000000)">
                        <g id="Group">
                            <g id="iPhone-180x180Asset-3">
                                <path d="M25.1784247,6.74075342 L20.4941096,6.74075342 C18.6610334,4.84508799 16.1369899,3.77469175 13.5,3.77469175 C10.8630101,3.77469175 8.33896662,4.84508799 6.50589041,6.74075342 L1.82157534,6.74075342 C4.23647205,2.57642498 8.68612864,0.013079282 13.5,0.013079282 C18.3138714,0.013079282 22.763528,2.57642498 25.1784247,6.74075342 L25.1784247,6.74075342 Z" id="Path" fill="#00BE6E"></path>
                                <path d="M13.4204795,26.9889041 C8.62973131,26.9579938 4.21422341,24.3903655 1.81782445,20.2419326 C-0.578574505,16.0934997 -0.596852783,10.9857516 1.76979452,6.82027397 L4.12027397,10.8887671 C3.42579455,13.4043609 3.76982982,16.0934253 5.0752575,18.3531536 C6.38068517,20.6128819 8.53830788,22.2542508 11.0644521,22.9093151 L13.4204795,26.9889041 Z" id="Path" fill="#F05C40"></path>
                                <path d="M27,13.5 C27,20.9558441 20.9558441,27 13.5,27 L13.4889041,27 L15.824589,22.9555479 C18.3974063,22.3218888 20.6009448,20.6672267 21.9269724,18.3731989 C23.253,16.0791711 23.5870177,13.3438611 22.8519863,10.7981507 L25.1876712,6.75184932 C26.3768545,8.80182237 27.0021458,11.1300756 27,13.5 L27,13.5 Z" id="Path" fill="#008CAA"></path>
                            </g>
                        </g>
                    </g>
                </g>
            </g>
        </g>
    </g>
</svg>