<?xml version="1.0" encoding="UTF-8"?>
<svg width="207px" height="177px" viewBox="0 0 207 177" version="1.1" xmlns="http://www.w3.org/2000/svg" xmlns:xlink="http://www.w3.org/1999/xlink">
    <!-- Generator: sketchtool 53.1 (72631) - https://sketchapp.com -->
    <title>0CABBC23-6BF2-43D3-B1DE-0C338E91F55E</title>
    <desc>Created with sketchtool.</desc>
    <g id="Home" stroke="none" stroke-width="1" fill="none" fill-rule="evenodd">
        <g id="1" transform="translate(-77.000000, -563.000000)">
            <g id="All-OC-Card" transform="translate(0.000000, 465.000000)">
                <g id="Group-22-Copy" transform="translate(77.000000, 98.000000)">
                    <path d="M154.816447,160.056521 L164.418648,153.70001 C194.185144,133.995039 210.290314,99.1846767 206.038578,63.7410184 L204.937296,54.5604213 C200.866478,20.6249478 170.056291,-3.58513892 136.120818,0.48567902 C133.643895,0.782804745 131.187204,1.2294287 128.764194,1.82310596 C42.9213977,22.8559958 0,47.8741303 0,76.8775053 C0,76.8775053 0,76.8775053 0,76.8775053 L0,76.8775053 C6.74684491e-15,131.969675 44.6610276,176.630702 99.7531972,176.630702 C119.336608,176.630702 138.486838,170.866416 154.81642,160.05648 Z" id="Oval" fill="#D8D8D8"></path>
                    <text id="&lt;Illustration-placeh" font-family="Nunito-SemiBold, Nunito" font-size="15.6000009" font-weight="500" fill="#ABABAB">
                        <tspan x="14.3000008" y="94.0000043">&lt;Illustration placeholder&gt;</tspan>
                    </text>
                </g>
            </g>
        </g>
    </g>
</svg>